<svg version="1" xmlns="http://www.w3.org/2000/svg" width="2666.667" height="2666.667" viewBox="0 0 2000.000000 2000.000000"><path d="M950 .6c-58.3 3.9-98.7 9-146 18.4-172.8 34.6-330.2 112.4-464.8 229.8-21.5 18.7-71.7 68.9-90.4 90.4C112.9 495 29.4 683.2 6.1 886c-5 42.9-5.6 55.8-5.6 114s.6 71.1 5.6 114c23.3 202.8 106.8 391 242.7 546.8 18.7 21.5 68.9 71.7 90.4 90.4 155.8 135.9 344 219.4 546.8 242.7 42.9 5 55.8 5.6 114 5.6s71.1-.6 114-5.6c202.8-23.3 391-106.8 546.8-242.7 21.5-18.7 71.7-68.9 90.4-90.4 135.9-155.8 219.4-344 242.7-546.8 5-42.9 5.6-55.8 5.6-114s-.6-71.1-5.6-114c-23.3-202.8-106.8-391-242.7-546.8-18.7-21.5-68.9-71.7-90.4-90.4-155.9-136-344.6-219.7-547.3-242.8-40.1-4.5-53.4-5.2-106.5-5.5-28.3-.1-54-.1-57 .1z"/></svg>